/* XPM */
static char * 16x16_player_on_xpm[] = {
"16 16 155 2",
"  	c None",
". 	c #010414",
"+ 	c #01061E",
"@ 	c #010622",
"# 	c #010420",
"$ 	c #010422",
"% 	c #01041A",
"& 	c #01040E",
"* 	c #010612",
"= 	c #010E2C",
"- 	c #01244E",
"; 	c #085A74",
"> 	c #2A7589",
", 	c #2E798C",
"' 	c #1C6B81",
") 	c #014061",
"! 	c #011639",
"~ 	c #01081E",
"{ 	c #010614",
"] 	c #011A3D",
"^ 	c #065A75",
"/ 	c #5FA3B6",
"( 	c #8ACFE0",
"_ 	c #96DCED",
": 	c #98DEEE",
"< 	c #92D8E8",
"[ 	c #7BBFD1",
"} 	c #2E8195",
"| 	c #013256",
"1 	c #010A22",
"2 	c #011636",
"3 	c #045E77",
"4 	c #63B7CB",
"5 	c #8AD8EB",
"6 	c #87D5E8",
"7 	c #85D2E6",
"8 	c #85D3E7",
"9 	c #89D7EA",
"0 	c #82D1E5",
"a 	c #2C8B9F",
"b 	c #013053",
"c 	c #01081C",
"d 	c #01061C",
"e 	c #014360",
"f 	c #1C92A5",
"g 	c #69C8DF",
"h 	c #64C3DB",
"i 	c #63C3DB",
"j 	c #68C7DF",
"k 	c #53B7CD",
"l 	c #016980",
"m 	c #011C3E",
"n 	c #011839",
"o 	c #01687E",
"p 	c #0E9BB3",
"q 	c #39BBD6",
"r 	c #37B7D2",
"s 	c #39B9D4",
"t 	c #2CB1CD",
"u 	c #018297",
"v 	c #01284B",
"w 	c #017D92",
"x 	c #0193AC",
"y 	c #01A6C6",
"z 	c #01A8C9",
"A 	c #019DBA",
"B 	c #018BA1",
"C 	c #015F77",
"D 	c #01324F",
"E 	c #01879C",
"F 	c #0196AF",
"G 	c #0199B3",
"H 	c #019BB7",
"I 	c #019CB8",
"J 	c #019DB9",
"K 	c #019CB7",
"L 	c #0199B5",
"M 	c #0197B1",
"N 	c #0193AB",
"O 	c #01697F",
"P 	c #010118",
"Q 	c #012C4D",
"R 	c #018399",
"S 	c #019DB7",
"T 	c #01A5C1",
"U 	c #01ABC8",
"V 	c #01AECE",
"W 	c #01AFCE",
"X 	c #01AFCF",
"Y 	c #01ADCB",
"Z 	c #01A8C5",
"` 	c #01A1BD",
" .	c #0195AD",
"..	c #015F78",
"+.	c #011634",
"@.	c #01738A",
"#.	c #01A2BF",
"$.	c #01B7D9",
"%.	c #01C2E5",
"&.	c #0CC6E8",
"*.	c #0EC6E8",
"=.	c #0EC7E8",
"-.	c #08C4E8",
";.	c #01BEE1",
">.	c #01AECD",
",.	c #0192AA",
"'.	c #014762",
").	c #010820",
"!.	c #01516B",
"~.	c #01C3E7",
"{.	c #22D1F6",
"].	c #36D7FA",
"^.	c #3DD8FA",
"/.	c #3ED9FA",
"(.	c #3BD8FA",
"_.	c #30D5F9",
":.	c #10CDF1",
"<.	c #01B4D5",
"[.	c #017C94",
"}.	c #011E42",
"|.	c #01183B",
"1.	c #01728D",
"2.	c #01B6D6",
"3.	c #20D4F7",
"4.	c #40DFFF",
"5.	c #4AE4FF",
"6.	c #4BE3FF",
"7.	c #47E2FF",
"8.	c #34DAFF",
"9.	c #0CC8EB",
"0.	c #0198B5",
"a.	c #044361",
"b.	c #011C43",
"c.	c #067490",
"d.	c #06ACCB",
"e.	c #14CCEE",
"f.	c #24DAFD",
"g.	c #26DCFF",
"h.	c #1CD5F7",
"i.	c #0CBEE0",
"j.	c #0492B0",
"k.	c #084D6B",
"l.	c #010116",
"m.	c #06163B",
"n.	c #0A4867",
"o.	c #087592",
"p.	c #0690AF",
"q.	c #0496B7",
"r.	c #0685A3",
"s.	c #08627E",
"t.	c #0A2E52",
"u.	c #06122E",
"v.	c #081028",
"w.	c #080E26",
"x.	c #061230",
"                                ",
"          . + @ # $ % &         ",
"      * = - ; > , ' ) ! ~       ",
"    { ] ^ / ( _ : < [ } | 1     ",
"    2 3 4 5 6 7 7 8 9 0 a b c   ",
"  d e f g h h h h h i j k l m   ",
"  n o p q r r r r r r s t u e d ",
"  v w x y z z z z z z z A B C % ",
"  D E F G H I J J I K L M N O P ",
"  Q R S T U V W X W Y Z `  ...~ ",
"  +.@.#.$.%.&.*.*.=.-.;.>.,.'.  ",
"  ).!.K ~.{.].^./.(._.:.<.[.}.  ",
"    |.1.2.3.4.5.6.7.8.9.0.a.    ",
"      b.c.d.e.f.g.h.i.j.k.l.    ",
"        m.n.o.p.q.r.s.t.        ",
"            u.v.w.x.            "};
