/* XPM */
static char * 16x16_player_whisper_xpm[] = {
"16 16 160 2",
"  	c None",
". 	c #000B1A",
"+ 	c #001025",
"@ 	c #001126",
"# 	c #001124",
"$ 	c #000E1F",
"% 	c #000914",
"& 	c #000C17",
"* 	c #00172E",
"= 	c #1B1730",
"- 	c #582337",
"; 	c #7D303E",
"> 	c #852F3A",
", 	c #6E2D3E",
"' 	c #3A1A30",
") 	c #061831",
"! 	c #001223",
"~ 	c #000B18",
"{ 	c #071B32",
"] 	c #5F1D30",
"^ 	c #CE5455",
"/ 	c #FA8784",
"( 	c #FF9794",
"_ 	c #FF9996",
": 	c #FF928F",
"< 	c #EC7370",
"[ 	c #9C323B",
"} 	c #291933",
"| 	c #001326",
"1 	c #041A30",
"2 	c #6E1927",
"3 	c #EB5B56",
"4 	c #FF8987",
"5 	c #FF8483",
"6 	c #FE817F",
"7 	c #FE807F",
"8 	c #FF8281",
"9 	c #FF8786",
"0 	c #FF7F7B",
"a 	c #B52E30",
"b 	c #291930",
"c 	c #001222",
"d 	c #001122",
"e 	c #43172A",
"f 	c #CA1A16",
"g 	c #FC6361",
"h 	c #F85D5A",
"i 	c #F75D5A",
"j 	c #F75D59",
"k 	c #FB6360",
"l 	c #EF4642",
"m 	c #8D0A10",
"n 	c #0D1B33",
"o 	c #081931",
"p 	c #8C0C11",
"q 	c #D8120A",
"r 	c #F33635",
"s 	c #F03333",
"t 	c #F13535",
"u 	c #EB2A27",
"v 	c #BE0300",
"w 	c #42192D",
"x 	c #001121",
"y 	c #1B182F",
"z 	c #B00709",
"A 	c #D00701",
"B 	c #E60F05",
"C 	c #E90F05",
"D 	c #E80F05",
"E 	c #EA0F05",
"F 	c #DB0D04",
"G 	c #C90100",
"H 	c #6C1322",
"I 	c #001020",
"J 	c #241529",
"K 	c #C10301",
"L 	c #D20500",
"M 	c #D60500",
"N 	c #D90700",
"O 	c #DA0A00",
"P 	c #DB0A00",
"Q 	c #DA0900",
"R 	c #D80600",
"S 	c #D30500",
"T 	c #D30200",
"U 	c #7E0C16",
"V 	c #1B1A31",
"W 	c #B80607",
"X 	c #DB0200",
"Y 	c #E30400",
"Z 	c #EA0200",
"` 	c #EF0300",
" .	c #F10300",
"..	c #F00300",
"+.	c #ED0300",
"@.	c #E70300",
"#.	c #DF0400",
"$.	c #D50100",
"%.	c #6E1320",
"&.	c #001327",
"*.	c #071A2F",
"=.	c #970D14",
"-.	c #E50400",
";.	c #F90400",
">.	c #FF0804",
",.	c #FF0C0B",
"'.	c #FF0E0C",
").	c #FF0C0C",
"!.	c #FF0B08",
"~.	c #FE0501",
"{.	c #EF0600",
"].	c #D10401",
"^.	c #441A2C",
"/.	c #4B1A31",
"(.	c #E00501",
"_.	c #FF0301",
":.	c #FF221E",
"<.	c #FF322D",
"[.	c #FF3330",
"}.	c #FF3431",
"|.	c #FF332F",
"1.	c #FF2D28",
"2.	c #FF110F",
"3.	c #FB0100",
"4.	c #A20F17",
"5.	c #0C1E38",
"6.	c #061E38",
"7.	c #851B29",
"8.	c #FB0600",
"9.	c #FF1C19",
"0.	c #FF3532",
"a.	c #FF3938",
"b.	c #FF3939",
"c.	c #FF3836",
"d.	c #FF2C29",
"e.	c #FF0C06",
"f.	c #D00F0F",
"g.	c #35223B",
"h.	c #0A213B",
"i.	c #7C2535",
"j.	c #E61313",
"k.	c #FF1410",
"l.	c #FF1D1A",
"m.	c #FF1915",
"n.	c #FD120D",
"o.	c #BB1A20",
"p.	c #3A2B42",
"q.	c #000F23",
"r.	c #02213D",
"s.	c #312C45",
"t.	c #792539",
"u.	c #A61D2C",
"v.	c #B31A22",
"w.	c #942335",
"x.	c #56293D",
"y.	c #142B47",
"z.	c #001E34",
"A.	c #001D31",
"B.	c #001C2E",
"C.	c #001E35",
"                                ",
"          . + @ # @ $ %         ",
"      & * = - ; > , ' ) !       ",
"    ~ { ] ^ / ( _ : < [ } |     ",
"    1 2 3 4 5 6 7 8 9 0 a b c   ",
"  d e f g h i i i i j k l m n   ",
"  o p q r s s s s s s t u v w x ",
"  y z A B C D D D D D E F G H I ",
"  J K L M N O P P O Q R S T U $ ",
"  V W X Y Z `  . ...+.@.#.$.%.&.",
"  *.=.-.;.>.,.'.'.).!.~.{.].^.  ",
"  | /.(._.:.<.[.}.|.1.2.3.4.5.  ",
"    6.7.8.9.0.a.b.c.d.e.f.g.    ",
"      h.i.j.k.9.l.m.n.o.p.q.    ",
"        r.s.t.u.v.w.x.y.        ",
"            z.A.B.C.            "};
