/* XPM */
static char * channel_xpm[] = {
"16 16 52 1",
" 	c None",
".	c #7C97B8",
"+	c #7B97B8",
"@	c #7B96B7",
"#	c #738FB0",
"$	c #728EAF",
"%	c #7490B1",
"&	c #7692B2",
"*	c #7691B2",
"=	c #6B87A8",
"-	c #6A86A7",
";	c #6D89AA",
">	c #6F8CAD",
",	c #718DAD",
"'	c #708CAD",
")	c #6B88A8",
"!	c #6C88A9",
"~	c #6582A2",
"{	c #6481A1",
"]	c #6480A0",
"^	c #6380A0",
"/	c #627F9F",
"(	c #6481A0",
"_	c #5C7999",
":	c #5B7898",
"<	c #5A7696",
"[	c #5A7797",
"}	c #5D7999",
"|	c #5B7897",
"1	c #5B7797",
"2	c #5C7998",
"3	c #5C7898",
"4	c #537090",
"5	c #526F8F",
"6	c #4F6C8D",
"7	c #4E6B8C",
"8	c #4D6A8B",
"9	c #516D8E",
"0	c #4F6C8C",
"a	c #537091",
"b	c #4B6989",
"c	c #476585",
"d	c #496787",
"e	c #486685",
"f	c #486585",
"g	c #466484",
"h	c #4A6787",
"i	c #4A6788",
"j	c #4B6889",
"k	c #446282",
"l	c #436181",
"m	c #426080",
"                ",
"                ",
"                ",
"   ...+@+....@  ",
"  ##$#%&*%$###  ",
"  ==-;>,,')!==  ",
"  ~~{]^]/(/^/^  ",
"  _:<[}|123:[:  ",
"  44566787905a  ",
"  bcdefcgchdij  ",
"   klllllkkkl   ",
"         mm     ",
"         m      ",
"        m       ",
"                ",
"                "};
