/* XPM */
static char * 16x16_player_off_xpm[] = {
"16 16 156 2",
"  	c None",
". 	c #00040A",
"+ 	c #00050F",
"@ 	c #000510",
"# 	c #000410",
"$ 	c #00040C",
"% 	c #000307",
"& 	c #000509",
"* 	c #000914",
"= 	c #000C26",
"- 	c #082141",
"; 	c #163356",
"> 	c #18355A",
", 	c #112D4F",
"' 	c #001533",
") 	c #000A1C",
"! 	c #00070F",
"~ 	c #000409",
"{ 	c #000B1D",
"] 	c #062042",
"^ 	c #3C5B83",
"/ 	c #6A88AE",
"( 	c #7795BC",
"_ 	c #7897BE",
": 	c #7291B8",
"< 	c #58779E",
"[ 	c #1C3A60",
"} 	c #00112B",
"| 	c #000710",
"1 	c #000B18",
"2 	c #031F45",
"3 	c #456894",
"4 	c #6B8DB9",
"5 	c #6789B5",
"6 	c #6487B3",
"7 	c #6588B4",
"8 	c #698CB8",
"9 	c #6285B0",
"0 	c #1C3F6A",
"a 	c #00102A",
"b 	c #00070E",
"c 	c #00060E",
"d 	c #001534",
"e 	c #163F71",
"f 	c #4D76A9",
"g 	c #4871A4",
"h 	c #4870A4",
"i 	c #4D75A8",
"j 	c #3A6295",
"k 	c #01224E",
"l 	c #000C1E",
"m 	c #000B1B",
"n 	c #002150",
"o 	c #11417E",
"p 	c #315F9A",
"q 	c #2E5C97",
"r 	c #305E98",
"s 	c #265692",
"t 	c #012E68",
"u 	c #001633",
"v 	c #00050D",
"w 	c #000F24",
"x 	c #002C64",
"y 	c #03387E",
"z 	c #13478C",
"A 	c #15498D",
"B 	c #0B4086",
"C 	c #003376",
"D 	c #001F47",
"E 	c #00050C",
"F 	c #001127",
"G 	c #00316F",
"H 	c #003A85",
"I 	c #013C87",
"J 	c #043E88",
"K 	c #053F89",
"L 	c #053F88",
"M 	c #033E88",
"N 	c #003B86",
"O 	c #003880",
"P 	c #00234F",
"Q 	c #00040B",
"R 	c #001025",
"S 	c #002F6C",
"T 	c #02408C",
"U 	c #074591",
"V 	c #0B4894",
"W 	c #0E4B97",
"X 	c #0F4B98",
"Y 	c #0D4A95",
"Z 	c #094793",
"` 	c #044390",
" .	c #003A82",
"..	c #001F48",
"+.	c #00050E",
"@.	c #01295A",
"#.	c #07428E",
"$.	c #1251A1",
"%.	c #1C5AA7",
"&.	c #215EAB",
"*.	c #215FAA",
"=.	c #215EAA",
"-.	c #225FAB",
";.	c #1F5CA9",
">.	c #1856A5",
",.	c #0C4B9A",
"'.	c #04387C",
").	c #001734",
"!.	c #00060F",
"~.	c #011C3D",
"{.	c #094084",
"].	c #1C5BAA",
"^.	c #2D6BBA",
"/.	c #3571BF",
"(.	c #3673C0",
"_.	c #3774C0",
":.	c #3673BF",
"<.	c #326FBD",
"[.	c #2564B4",
"}.	c #124F9B",
"|.	c #042E62",
"1.	c #000D1E",
"2.	c #010C1C",
"3.	c #082B58",
"4.	c #185099",
"5.	c #2B6ABA",
"6.	c #3A79C8",
"7.	c #3F7FCD",
"8.	c #3D7CCB",
"9.	c #3473C3",
"0.	c #215FAD",
"a.	c #0F3E7C",
"b.	c #041834",
"c.	c #000D1F",
"d.	c #0C2E58",
"e.	c #194D8F",
"f.	c #2563B1",
"g.	c #2D70C1",
"h.	c #2E72C4",
"i.	c #2A6BBB",
"j.	c #2059A3",
"k.	c #123E76",
"l.	c #071D3A",
"m.	c #00000A",
"n.	c #030C1C",
"o.	c #081D37",
"p.	c #0E2F59",
"q.	c #123E75",
"r.	c #12417C",
"s.	c #11386A",
"t.	c #0B2648",
"u.	c #061529",
"v.	c #030B16",
"w.	c #030A14",
"x.	c #030A13",
"y.	c #030C17",
"                                ",
"          . + @ # @ $ %         ",
"      & * = - ; > , ' ) !       ",
"    ~ { ] ^ / ( _ : < [ } |     ",
"    1 2 3 4 5 6 6 7 8 9 0 a b   ",
"  c d e f g g g g g h i j k l   ",
"  m n o p q q q q q q r s t u v ",
"  w x y z A A A A A A A B C D E ",
"  F G H I J K K K K L M N O P Q ",
"  R S T U V W X X W Y Z `  ...+.",
"  1 @.#.$.%.&.*.=.-.;.>.,.'.).  ",
"  !.~.{.].^./.(._.:.<.[.}.|.1.  ",
"    2.3.4.5.6.7.7.8.9.0.a.b.    ",
"      c.d.e.f.g.h.i.j.k.l.m.    ",
"        n.o.p.q.r.s.t.u.        ",
"            v.w.x.y.            "};
